<svg xmlns="http://www.w3.org/2000/svg" viewBox="0 0 60.614 60.614"  xmlns:v="https://vecta.io/nano"><path d="M50.752 47.941H13.72A13.74 13.74 0 0 1 0 34.221 13.74 13.74 0 0 1 13.72 20.5c1.233 0 2.466.171 3.673.511 2.143-5.025 7.094-8.338 12.611-8.338a13.63 13.63 0 0 1 10.27 4.637 9.89 9.89 0 0 1 3.833-.779c5.438 0 9.862 4.424 9.862 9.862a9.8 9.8 0 0 1-.271 2.275c4.066 1.27 6.916 5.067 6.916 9.411 0 5.437-4.424 9.862-9.862 9.862zM13.72 22.5C7.258 22.5 2 27.758 2 34.221s5.258 11.72 11.72 11.72h37.032c4.335 0 7.861-3.527 7.861-7.862a7.87 7.87 0 0 0-6.362-7.715c-.286-.056-.534-.233-.679-.487s-.172-.558-.072-.833a7.84 7.84 0 0 0 .469-2.65c0-4.335-3.527-7.862-7.862-7.862a7.77 7.77 0 0 0-3.642.898 1 1 0 0 1-1.251-.268c-2.243-2.853-5.601-4.489-9.21-4.489-4.992 0-9.441 3.176-11.072 7.902-.086.252-.271.459-.512.575s-.518.131-.77.041c-1.284-.459-2.608-.691-3.93-.691z" fill="#010002"/></svg>