<svg xmlns="http://www.w3.org/2000/svg" viewBox="0 0 600 340"  xmlns:v="https://vecta.io/nano"><path d="M158.9 167.9c0 3-.9 5.3-2.6 6.9s-4.2 2.4-7.4 2.4h-5.2v-18.3h5.8c3 0 5.3.8 7 2.4 1.6 1.6 2.4 3.8 2.4 6.6zm-4 .1c0-3.9-1.7-5.9-5.2-5.9h-2.1V174h1.7c3.7 0 5.6-2 5.6-6zm20.3 9.2h-10.5v-18.3h10.5v3.2h-6.7v4h6.2v3.2h-6.2v4.7h6.7v3.2zm16.2-18.3h3.9l-6.2 18.3h-4.2l-6.2-18.3h3.9l3.4 10.9c.2.6.4 1.4.6 2.2l.4 1.8c.1-.8.4-2.1.9-4l3.5-10.9zm230 9.2c0 3-.8 5.4-2.3 7s-3.7 2.4-6.5 2.4-5-.8-6.5-2.4-2.3-4-2.3-7 .8-5.4 2.3-7 3.7-2.4 6.5-2.4 5 .8 6.5 2.4 2.3 3.9 2.3 7zm-13.4 0c0 2 .4 3.6 1.2 4.6s1.9 1.6 3.5 1.6c3.1 0 4.6-2.1 4.6-6.2s-1.5-6.2-4.6-6.2c-1.5 0-2.7.5-3.5 1.6-.8 1-1.2 2.5-1.2 4.6zm31.8-3.5c0 2-.6 3.5-1.8 4.5s-3 1.6-5.3 1.6H431v6.5h-3.9v-18.3h5.9c2.2 0 3.9.5 5.1 1.4 1.1 1 1.7 2.4 1.7 4.3zm-8.8 2.9h1.3c1.2 0 2.1-.2 2.7-.7s.9-1.2.9-2.1-.2-1.6-.7-2-1.3-.7-2.3-.7H431v5.5zm25 4.6c0 1.7-.6 3-1.8 3.9-1.2 1-2.8 1.4-5 1.4-2 0-3.7-.4-5.2-1.1v-3.6c1.2.6 2.3.9 3.1 1.2.9.2 1.6.3 2.3.3.9 0 1.5-.2 2-.5s.7-.8.7-1.5a1.69 1.69 0 0 0-.3-1c-.2-.3-.5-.5-.9-.8s-1.2-.7-2.4-1.2c-1.1-.5-2-1-2.5-1.5s-1-1-1.3-1.7c-.3-.6-.5-1.4-.5-2.3 0-1.6.5-2.9 1.6-3.8s2.6-1.4 4.6-1.4c1 0 1.9.1 2.7.3.9.2 1.8.5 2.7 1l-1.3 3c-1-.4-1.8-.7-2.4-.8-.6-.2-1.3-.2-1.9-.2-.7 0-1.3.2-1.7.5s-.6.8-.6 1.3c0 .3.1.6.2.9a1.85 1.85 0 0 0 .8.7c.3.2 1.2.7 2.5 1.3 1.7.8 2.9 1.6 3.5 2.5s1.1 2 1.1 3.1z" fill="#353535"/><path d="M180.2 75.6c47.4 5.4 84.2 45.6 84.2 94.4 0-38.8 13.3-74.6 35.6-102.9-28.4-36-71.3-59.9-119.8-63.1l-13.9 35.8 13.9 35.8z" fill="#19838e"/><path d="M159.3 264.5c-47.8-5-85-45.4-85-94.5v-1.6l-35.2 13.7-36.1-14v1.9c0 88.6 69.3 161 156.6 166l13.7-35.4-14-36.1z" fill="#3737aa"/><path d="M336 177zm-.3-3.5l-.1-3.5v3.5h.1z" fill="#353535"/><path d="M74.7 161.1c4.5-48.3 45.1-86.2 94.6-86.2 1.2 0 2.3 0 3.5.1l-13.7-35.2 14-36.1h-3.8C80.5 3.7 7.9 73.3 3.2 161l35.9 13.9 35.6-13.8z" fill="#8b9b29"/><g fill="#3fa9f5"><path d="M264.7 180.8h0v-.1.1zm70.6-.3L300.5 167l-35.8 13.9v.1l-1 .4c-5.6 47.2-45.7 83.8-94.4 83.8h-2.7l13.8 35.7-13.8 35.6h2.7c53 0 100.2-24.8 130.7-63.4v-.1c20.3-25.9 33.1-57.8 35.3-92.5z"/><path d="M264.7 180.7h0z"/></g><g fill="#f15a24"><path d="M264.4 173.8h0zm0 .1h0c0-.1 0 0 0 0h0z"/><path d="M458.8 6.1c-9.2-1.6-18.6-2.4-28.1-2.4-53 0-100.2 24.8-130.7 63.4-22.3 28.3-35.6 64-35.6 102.9v3.8l36.1-14 35.1 13.6v-3.5c0-52.5 42.6-95 95-95 4.3 0 8.5.3 12.7.8l21.1-31.3-5.6-38.3z"/></g><path d="M594.5 198.8c1.6-9.4 2.5-19 2.5-28.8 0-79.8-56.2-146.5-131.3-162.6l5.7 38.7-20.9 31c43 9.1 75.2 47.3 75.2 93 0 4.2-.3 8.4-.8 12.5l32.2 21.8 37.4-5.6z" fill="#9263ab"/><path d="M523.7 189.7c-9.1 43-47.3 75.4-93 75.4-4.2 0-8.3-.3-12.4-.8L396.4 297l5.6 36.9c9.3 1.6 18.9 2.5 28.7 2.5 79.6 0 146.1-55.9 162.5-130.6l-37.6 5.5-31.9-21.6z" fill="#aa2e2e"/><path d="M411.1 263c-39.7-8.3-70.2-41.3-74.9-82.2l-.9-.4c-2.2 34.8-15 66.7-35.3 92.4 23.4 29.7 56.8 51.2 95 59.6l-5.6-37.1 21.7-32.3z" fill="#19838e"/><g fill="#fff"><path d="M327.8 94.9l3.1 2.3-1.3 1.7-8.2-6.1 1.8-2.4c.8-1.1 1.6-1.8 2.4-2s1.6 0 2.4.6c.5.4.8.8 1 1.4.2.5.2 1.1 0 1.8l5.4.3-1.4 1.9-4.6-.4-.6.9zm-1.4-1.1l.4-.6c.4-.5.6-1 .6-1.4s-.2-.7-.6-1-.8-.4-1.1-.2c-.4.1-.8.5-1.2 1.1l-.4.5 2.3 1.6zm13.4-7.4l-3.9 4.4-7.7-6.7 3.9-4.4 1.3 1.2-2.4 2.8 1.7 1.5 2.3-2.6 1.3 1.2-2.3 2.6 2 1.7 2.4-2.8 1.4 1.1zm2.1-2.2l-7.2-7.3 1.5-1.5 5.9 6 2.9-2.9 1.3 1.3-4.4 4.4zm11-10l-4.5 3.8-6.6-7.8 4.5-3.8 1.2 1.3-2.8 2.4 1.5 1.7 2.6-2.2 1.2 1.3-2.6 2.2 1.7 2 2.8-2.4 1 1.5zm7.4-5.6l-2-1.5-3 2.2.8 2.4-1.9 1.4-3.1-10.4 2.1-1.6 8.9 6.2-1.8 1.3zm-3.5-2.7l-3.1-2.3c-.2-.2-.4-.3-.6-.4l1.5 4.3 2.2-1.6zm10.8-5.3c.5.8.6 1.6.3 2.4s-.9 1.5-1.9 2.1c-.9.6-1.9.9-2.8 1l-1-1.7c.7-.1 1.4-.2 1.8-.4.5-.1.9-.3 1.2-.5.4-.2.7-.5.8-.8s.1-.6-.1-.9a.78.78 0 0 0-.4-.4c-.2-.1-.4-.1-.7-.1s-.8 0-1.5.1-1.2.1-1.6 0-.8-.2-1.1-.4-.6-.5-.9-.9c-.5-.8-.6-1.5-.3-2.3s.8-1.4 1.8-2c.5-.3.9-.5 1.4-.6s1-.3 1.6-.3l.3 1.8-1.4.3c-.3.1-.7.3-1 .4-.3.2-.6.5-.7.7a.78.78 0 0 0 .1.8.78.78 0 0 0 .4.4c.2.1.3.1.6.1s.7 0 1.5-.1c1.1-.1 1.8-.1 2.4.1.5.2.9.6 1.2 1.2zm9.2-1.7l-5.2 2.7-4.7-9.1 5.2-2.7.8 1.6-3.3 1.7 1 2 3.1-1.6.8 1.6-3.1 1.6 1.2 2.3 3.3-1.7.9 1.6zm-143.7-2.8c-.5 1-1.2 1.6-2.1 1.8s-1.9 0-3-.6l-.8-.4-1.7 3.2-1.9-1 4.7-9 2.9 1.5c1.1.6 1.8 1.2 2.1 2 .3.7.2 1.6-.2 2.5zm-5.1-.8l.6.3c.6.3 1.1.4 1.5.3s.7-.3 1-.8c.2-.5.3-.8.2-1.2-.1-.3-.5-.6-1-.9l-.9-.5-1.4 2.8zm4.2 8.5l5.4-8.7 1.8 1.1-4.4 7.1 3.5 2.2-.9 1.5-5.4-3.2zm12.6 8.5l.8-2.4-3-2.2-2 1.5-1.9-1.4 9-6.1 2.1 1.6-3.2 10.4-1.8-1.4zm1.5-4.2l1.3-3.7c.1-.3.2-.5.3-.7l-3.7 2.8 2.1 1.6zm8.8 13l-2-1.8 1.8-8.7-1.8 2.3-3.2 3.6-1.4-1.3 6.8-7.6 2 1.8-1.8 8.6 1.8-2.2 3.2-3.6 1.4 1.3-6.8 7.6zM55.7 102.8c-.4.7-.5 1.4-.2 2.1s.9 1.3 1.9 1.9c2 1.1 3.4 1 4.2-.5.4-.6.6-1.5.8-2.5l1.6.9c-.1.9-.4 1.8-1 2.7-.7 1.3-1.7 2-2.9 2.3-1.2.2-2.5-.1-3.9-.9-.9-.5-1.6-1.2-2.1-1.9s-.7-1.5-.8-2.4a4.75 4.75 0 0 1 .7-2.5c.5-.9 1.2-1.6 2.1-2.2l1.2 1.5c-.3.2-.7.5-1 .8-.1.1-.4.4-.6.7zm8.4-4.5l3.2 2.2-1.2 1.8-8.4-5.8 1.7-2.4c.8-1.1 1.6-1.8 2.4-2.1s1.6-.1 2.5.5c.5.3.8.8 1 1.3s.2 1.1.1 1.8l5.4.1-1.4 2-4.6-.2-.7.8zm-1.4-1l.4-.6c.4-.6.6-1 .6-1.4s-.2-.7-.6-1-.8-.3-1.1-.2c-.4.2-.7.5-1.1 1.1l-.4.5 2.2 1.6zm13.1-7.9l-3.7 4.5-7.9-6.5 3.7-4.5 1.4 1.1-2.3 2.9 1.7 1.4 2.2-2.7 1.4 1.1-2.2 2.7 2 1.7 2.3-2.9 1.4 1.2zm6.3-6.8l-2.3-1.1-2.6 2.7 1.2 2.2-1.6 1.7-4.8-9.7 1.8-1.9 9.9 4.5-1.6 1.6zm-3.9-2l-3.5-1.8c-.3-.1-.5-.3-.6-.3l2.3 4 1.8-1.9zm10.1-3.7l-1.6 1.4-5.6-6.3-2.1 1.9-1.2-1.3 5.8-5.1 1.2 1.3-2.1 1.8 5.6 6.3zM97 70l-4.7 3.6-6.2-8.1 4.7-3.6 1.1 1.4-3 2.3 1.4 1.8 2.7-2.1 1.1 1.4-2.7 2.1 1.6 2.1 3-2.3 1 1.4zM68.4 241.5l1.2 1.8-10.4 2.9-1.3-1.9 6.5-8.6 1.2 1.8-3.9 5c-.2.3-.5.6-.8 1s-.6.6-.7.7c.4-.2 1.1-.5 2.2-.8l6-1.9zm-1.8 14.4l-3.7-4.6 8-6.4 3.7 4.6-1.4 1.1-2.3-2.9-1.8 1.4 2.2 2.7-1.4 1.1-2.2-2.7-2.1 1.6 2.3 2.9-1.3 1.2zm6.7 1.7l-2.9 2.7-1.5-1.6 7.5-6.9 2 2.2c.9 1 1.5 1.9 1.5 2.8.1.8-.3 1.6-1 2.3-.4.4-.9.7-1.5.7-.6.1-1.2 0-1.8-.3l-1.2 5.2-1.6-1.8 1.2-4.4-.7-.9zm1.3-1.2l.5.5c.5.5.9.8 1.3.9s.8 0 1.1-.4c.4-.3.5-.7.4-1.1s-.4-.8-.8-1.3l-.4-.5-2.1 1.9zm1.9 10.1l7-7.4 1.6 1.5-7 7.4-1.6-1.5zm6.2 5.6l-1.6-1.4 6.6-7.8 4.5 3.8-1.1 1.4-2.8-2.4-1.7 2 2.6 2.2-1.1 1.3-2.6-2.2-2.8 3.1zm11.7 1.5l4.2-2.2 1.9 1.4-6.4 3.1-2.3 3.2-1.7-1.3 2.3-3.2 1-7.1 1.9 1.4-.9 4.7zm370 25.8l-4.5-7.1h-.1l1 3.1 1.2 4.6-1.9.5-2.7-9.8 2.8-.8 4.4 6.9.4-8.2 2.8-.8 2.7 9.8-1.9.5-1.3-4.7c-.1-.2-.1-.5-.2-.8s-.2-1.1-.5-2.3h-.1l-.5 8.4-1.6.7zm17.2-11.2c.6 1.6.7 2.9.2 4.1-.5 1.1-1.4 2-2.9 2.6s-2.7.6-3.8 0c-1.1-.5-2-1.6-2.6-3.2s-.7-2.9-.2-4.1c.5-1.1 1.4-2 2.9-2.6s2.7-.6 3.8 0 1.9 1.6 2.6 3.2zm-7 2.7c.4 1.1.9 1.8 1.5 2.2s1.3.4 2.1.1c1.6-.6 2-2 1.2-4.1s-2-2.9-3.6-2.3c-.8.3-1.3.8-1.5 1.5-.2.6-.1 1.5.3 2.6zm20.4-3.6l-2.5 1.2-7.4-4.9h-.1l1.4 2.5 2.2 4.3-1.7.9-4.6-9.1 2.4-1.2 7.4 4.8-1.4-2.5-2.2-4.3 1.7-.9 4.8 9.2zm3.5-2l-5.2-8.8 1.9-1.1 5.2 8.8-1.9 1.1zm8.5-5.5l-1.8 1.2-4.7-6.9-2.3 1.6-1-1.5 6.4-4.3 1 1.5-2.3 1.6 4.7 6.8zm8.8-13.2c1.1 1.3 1.6 2.6 1.5 3.8s-.7 2.3-1.9 3.3-2.4 1.4-3.6 1.2-2.4-.9-3.4-2.2c-1.1-1.3-1.6-2.6-1.5-3.8s.7-2.3 1.9-3.3 2.4-1.4 3.6-1.2c1.2.1 2.3.8 3.4 2.2zm-5.8 4.7c.7.9 1.4 1.4 2.1 1.6s1.4 0 2-.6c1.3-1.1 1.3-2.5-.2-4.3s-2.8-2.1-4.2-1c-.7.5-1 1.2-1 1.9.2.7.6 1.5 1.3 2.4zm10.6-7.6l2.7 2.8-1.5 1.5-7.1-7.3 2.1-2.1c1-1 1.9-1.5 2.7-1.6s1.6.2 2.3.9c.4.4.7.9.8 1.5s0 1.2-.2 1.8l5.3 1.1-1.7 1.7-4.5-1.1-.9.8zm-1.2-1.3l.5-.5c.5-.5.8-.9.8-1.3.1-.4-.1-.8-.4-1.1s-.7-.5-1.1-.4-.8.4-1.3.9l-.5.5 2 1.9zM235 279.1c.5 1 .6 1.9.3 2.7s-1.1 1.5-2.2 2.1l-.8.4 1.7 3.2-1.9 1-4.8-9 2.9-1.5c1.1-.6 2-.8 2.9-.6.7.2 1.4.7 1.9 1.7zm-3.6 3.7l.6-.3c.6-.3 1-.7 1.1-1 .2-.4.1-.8-.1-1.2s-.5-.7-.9-.8-.8 0-1.3.3l-.9.5 1.5 2.5zm15.2-2.7l-1.9-1.6-3.1 2 .7 2.4-2 1.3-2.6-10.6 2.2-1.4 8.6 6.6-1.9 1.3zm-3.4-2.9l-3-2.5-.5-.5 1.3 4.4 2.2-1.4z"/><path d="M249 267.7c-.6.5-1 1.1-.9 1.9 0 .8.4 1.6 1 2.4 1.4 1.8 2.8 2.2 4.1 1.1.6-.4 1.1-1.1 1.7-2l1.1 1.4c-.4.8-1.1 1.5-1.9 2.1-1.2.9-2.3 1.3-3.5 1-1.2-.2-2.3-1-3.3-2.3a5.81 5.81 0 0 1-1.3-2.6c-.2-.9-.1-1.7.2-2.5s.8-1.5 1.6-2.1 1.7-1 2.8-1.3l.5 1.8-1.2.3c-.3.4-.6.5-.9.8zm16.2-2.9l-1.8 1.7-4.9-1.3-.2 1.1 2.5 2.7-1.6 1.5-6.9-7.5 1.6-1.5 3.2 3.4-.2-1.5-.3-4.4 1.8-1.6.5 5.7 6.3 1.7zm6.2-6.8l-2.3-1.1-2.5 2.8 1.3 2.2-1.6 1.7-5.2-9.5 1.8-2 10 4.2-1.5 1.7zm-4-1.9l-3.5-1.6c-.3-.1-.5-.2-.6-.3l2.4 3.9 1.7-2zm5.2-8.6l2.4-3.2 4.2 3.2c-.2.7-.5 1.2-.8 1.8l-1 1.5c-.9 1.2-2 1.9-3.2 2s-2.5-.4-3.8-1.4-2.1-2.1-2.2-3.4c-.2-1.3.2-2.6 1.2-4 .6-.8 1.4-1.5 2.3-2l1 1.6c-.7.4-1.4.9-1.8 1.5-.6.7-.8 1.5-.6 2.4.2.8.7 1.6 1.5 2.2.9.7 1.7 1 2.4 1s1.4-.4 1.9-1.1c.3-.4.5-.8.7-1.2l-1.7-1.3-1.2 1.5-1.3-1.1zm12.3-8.1l-3.1 5-8.6-5.4 3.1-5 1.5.9-2 3.1 1.9 1.2 1.8-2.9 1.5.9-1.8 2.9 2.2 1.4 2-3.1 1.5 1zM516.7 69.9c-.6-.5-1.3-.7-2-.5s-1.5.7-2.2 1.5c-1.5 1.7-1.6 3.2-.3 4.3.5.5 1.3.9 2.3 1.3l-1.2 1.4c-.9-.3-1.7-.7-2.5-1.4-1.1-1-1.7-2-1.7-3.2s.5-2.4 1.6-3.7c.7-.8 1.4-1.4 2.2-1.8a3.59 3.59 0 0 1 2.5-.3c.8.1 1.6.5 2.4 1.2.8.6 1.4 1.5 1.8 2.5l-1.7.9-.6-1.1c-.1-.6-.3-.9-.6-1.1zm8.8 13.2c-1.2 1.2-2.4 1.8-3.7 1.8-1.2 0-2.4-.5-3.5-1.6s-1.6-2.3-1.6-3.5c.1-1.2.7-2.4 1.9-3.6s2.4-1.8 3.7-1.8c1.2 0 2.4.5 3.5 1.6s1.6 2.3 1.6 3.5-.7 2.4-1.9 3.6zm-5.2-5.3c-.8.8-1.3 1.6-1.4 2.3s.1 1.4.7 2c1.2 1.2 2.6 1 4.3-.6 1.6-1.6 1.9-3 .6-4.3-.6-.6-1.3-.9-2-.8-.6.2-1.4.6-2.2 1.4zm9.2 18.2l-1.7-2.2 3.3-8.3-2.2 1.9-3.8 3-1.2-1.5 8-6.3 1.7 2.1-3.2 8.2 2.1-1.8 3.8-3 1.2 1.5-8 6.4zm3.2 4.5l-1.2-1.8 8.4-5.7 3.3 4.8-1.5 1-2.1-3.1-2.2 1.5 1.9 2.9-1.5 1-1.9-2.9-3.2 2.3zm3.6 5.6l8.8-5.2 1.1 1.9-8.8 5.2-1.1-1.9zm9.7 5.7l1.8 3.6-4.7 2.4c-.5-.5-.9-1-1.2-1.5l-.9-1.5c-.7-1.4-.8-2.6-.4-3.8.4-1.1 1.4-2.1 2.9-2.8s2.8-.9 4.1-.5c1.2.4 2.2 1.4 3 2.9.5.9.7 1.9.8 3l-1.9.1c0-.8-.2-1.6-.5-2.3-.4-.8-1-1.4-1.9-1.6-.8-.2-1.7-.1-2.6.4-1 .5-1.6 1.1-2 1.8-.3.7-.3 1.4.1 2.2.2.4.5.8.7 1.2l1.9-1-.9-1.7 1.7-.9zm10.6 13.2l-6.1 2.4c-.7.3-1.4.4-2 .3s-1.2-.4-1.7-.9-.9-1.1-1.2-1.9c-.5-1.2-.5-2.3-.2-3.2.4-.9 1.1-1.6 2.2-2l6.1-2.4.8 2-5.8 2.3c-.7.3-1.2.6-1.4 1.1-.2.4-.2 1 .1 1.7s.6 1.1 1.1 1.2c.5.2 1.1.1 1.8-.2l5.8-2.3.5 1.9zm-4.1 7.9l-3.8 1.1-.6-2.1 9.8-2.9.8 2.9c.4 1.3.4 2.4.1 3.2s-.9 1.3-1.9 1.6a2.48 2.48 0 0 1-1.7 0c-.5-.2-1-.5-1.4-1l-3.4 4.1-.7-2.3 3.1-3.4-.3-1.2zm1.7-.5l.2.7c.2.7.4 1.1.8 1.4.3.2.7.3 1.2.2s.7-.4.8-.8.1-.9-.1-1.6l-.2-.6-2.7.7zm-2.1 15.2l-1.2-5.7 10-2.1 1.2 5.7-1.7.4-.8-3.6-2.2.5.7 3.4-1.7.4-.7-3.4-2.6.5.8 3.6-1.8.3z"/></g></svg>