<svg xmlns="http://www.w3.org/2000/svg" baseProfile="tiny" viewBox="0 0 172.238 180.994"  fill="#0099b0" xmlns:v="https://vecta.io/nano"><path d="M152.336 57.604l-16.439-3.057c-.4-.075-.838-.451-.973-.837l-5.039-11.756c-.188-.363-.152-.933.08-1.271l9.578-13.96c.229-.336.184-.847-.105-1.136l-11.963-11.963a.93.93 0 0 0-1.135-.105l-14.205 9.748c-.336.231-.912.272-1.277.092l-11.396-4.665c-.387-.128-.764-.561-.84-.962L95.457.729A.93.93 0 0 0 94.58 0H77.66a.93.93 0 0 0-.876.729L73.62 17.732c-.076.401-.452.834-.84.962l-11.397 4.665c-.366.18-.942.139-1.277-.092l-14.204-9.748a.93.93 0 0 0-1.136.105L32.802 25.587a.93.93 0 0 0-.105 1.136l9.579 13.96c.23.338.266.908.079 1.271l-5.04 11.756c-.134.386-.571.762-.973.837l-16.438 3.057c-.402.076-.729.47-.729.878l.001 16.919a.93.93 0 0 0 .729.878l16.035 2.984a1.36 1.36 0 0 1 .952.843l5.006 12.505c.179.367.137.941-.095 1.277l-9.108 13.273c-.23.336-.183.848.105 1.137l11.965 11.963c.288.287.799.334 1.136.105l13.038-8.949c.336-.23.899-.248 1.25-.043l5.75 3.07c.364.186.789.029.945-.348L78.74 85.449c.157-.377 0-.858-.348-1.071l-1.439-.881a6.81 6.81 0 0 1-.91-.697c-5.191-3.324-8.635-9.139-8.635-15.761 0-10.334 8.378-18.711 18.711-18.711s18.71 8.377 18.71 18.711c0 6.622-3.443 12.437-8.635 15.761-.281.256-.643.535-.908.697l-1.439.881a.9.9 0 0 0-.348 1.071l11.855 28.648c.156.377.58.533.945.348l5.75-3.07a1.28 1.28 0 0 1 1.25.043l13.039 8.949c.336.229.848.182 1.135-.105l11.965-11.963a.93.93 0 0 0 .105-1.137l-9.109-13.273c-.23-.336-.273-.91-.094-1.277l5.006-12.505a1.36 1.36 0 0 1 .951-.843l16.035-2.984a.93.93 0 0 0 .729-.878l.002-16.919a.93.93 0 0 0-.727-.879"/><path d="M45.597 180.781h3.613v-12.254c0-4.426-3.046-5.914-7.473-5.914-2.692 0-4.675.707-6.056 2.621l2.833 2.16c.637-1.027 1.523-1.383 3.4-1.383 2.585 0 3.683.604 3.683 2.303v1.877h-4.994c-3.86 0-5.843 2.445-5.843 5.313 0 3.117 2.337 5.49 6.339 5.49 2.444 0 3.684-.566 4.427-1.807h.071v1.594zm0-6.305c0 2.799-1.027 3.117-4.037 3.117-2.444 0-3.401-1.063-3.401-2.266 0-1.311.992-2.162 3.118-2.162h4.32v1.311zm7.581 6.305h3.612v-10.803c0-2.619 1.736-3.754 3.507-3.754.921 0 1.523.248 2.373.887l2.62-3.117c-1.098-.85-2.301-1.381-3.754-1.381-1.912 0-3.542.709-4.675 2.125h-.071v-1.912h-3.612v17.955zm22.917 0h3.612v-25.217h-3.612v9.174c-1.346-1.275-2.798-2.125-4.64-2.125-2.196 0-3.789.99-4.816 2.338-.992 1.273-1.275 2.441-1.275 6.836 0 4.426.283 5.594 1.275 6.869 1.027 1.346 2.62 2.338 4.816 2.338 1.842 0 3.507-.852 4.64-2.09v1.877zm-3.542-14.557c3.365 0 3.542 2.977 3.542 5.563 0 2.621-.177 5.594-3.542 5.594-3.4 0-3.577-2.797-3.577-5.594 0-2.764.177-5.563 3.577-5.563m25.59 14.557h3.189l5.736-17.955h-3.826l-3.433 12.572h-.073l-4.072-12.572h-2.621l-4.072 12.572H88.9l-3.436-12.572H81.64l5.737 17.955h3.187l3.754-12.573h.071zm20.043 0h3.613v-12.254c0-4.426-3.047-5.914-7.473-5.914-2.691 0-4.676.707-6.057 2.621l2.834 2.16c.637-1.027 1.521-1.383 3.398-1.383 2.586 0 3.684.604 3.684 2.303v1.877h-4.994c-3.859 0-5.844 2.445-5.844 5.313 0 3.117 2.338 5.49 6.34 5.49 2.443 0 3.684-.566 4.428-1.807h.07v1.594zm0-6.305c0 2.799-1.027 3.117-4.037 3.117-2.443 0-3.4-1.063-3.4-2.266 0-1.311.992-2.162 3.117-2.162h4.32v1.311zm7.582 6.305h3.611v-10.803c0-2.619 1.734-3.754 3.506-3.754.922 0 1.523.248 2.373.887l2.621-3.117c-1.098-.85-2.303-1.381-3.754-1.381-1.912 0-3.541.709-4.674 2.125h-.072v-1.912h-3.611v17.955zm26.98-7.614v-2.977c0-4.639-3.434-7.578-7.4-7.578-3.471 0-7.402 2.266-7.402 9.242 0 7.367 4.285 9.139 7.969 9.139 2.408 0 4.709-.85 6.48-2.904l-2.621-2.232c-1.063 1.1-2.551 1.736-3.93 1.736-2.48 0-4.285-1.488-4.285-4.426h11.189zm-11.189-2.976c.07-2.727 1.664-4.18 3.789-4.18s3.684 1.453 3.789 4.18h-7.578zM0 143.425c0 3.895.566 5.383 1.947 6.906.992 1.098 2.657 2.301 5.455 2.301s4.462-1.203 5.454-2.301c1.381-1.523 1.948-3.012 1.948-6.906 0-3.861-.567-5.348-1.948-6.871-.992-1.098-2.657-2.303-5.454-2.303s-4.463 1.205-5.455 2.303C.566 138.078 0 139.564 0 143.425m11.191.035c0 2.586-.212 3.293-.885 4.25-.532.744-1.665 1.311-2.904 1.311s-2.373-.566-2.904-1.311c-.673-.957-.886-1.664-.886-4.285 0-2.586.213-3.295.886-4.25.531-.744 1.664-1.311 2.904-1.311s2.372.566 2.904 1.311c.673.955.885 1.664.885 4.285m38.278 1.346v-2.975c0-4.641-3.435-7.58-7.401-7.58-3.472 0-7.402 2.268-7.402 9.244 0 7.365 4.285 9.137 7.968 9.137 2.409 0 4.71-.85 6.481-2.904l-2.621-2.23c-1.062 1.098-2.549 1.736-3.93 1.736-2.48 0-4.286-1.488-4.286-4.428h11.191zm-11.191-2.974c.071-2.729 1.665-4.18 3.79-4.18s3.683 1.451 3.789 4.18h-7.579zm14.274 10.587h3.612v-10.693c0-2.445 1.523-3.861 3.577-3.861 2.019 0 3.542 1.416 3.542 3.861v10.693h3.612v-11.934c0-4.074-3.187-6.234-5.985-6.234-1.912 0-3.542.709-4.674 2.125h-.072v-1.912h-3.612v17.955zm24.11-3.009c2.302 2.16 4.994 3.223 7.898 3.223 4.179 0 7.437-2.018 7.437-5.525 0-2.867-1.486-5.135-5.206-5.383l-2.975-.211c-1.806-.143-2.372-.922-2.372-1.701 0-1.238.779-2.16 3.08-2.16 1.949 0 3.402.674 4.818 1.664l2.23-2.619c-1.771-1.488-3.895-2.445-7.049-2.445-3.789 0-6.693 1.877-6.693 5.525 0 3.08 2.196 4.852 5.17 5.1l3.188.283c1.241.105 2.196.496 2.196 1.771 0 1.523-1.489 2.301-3.542 2.301-2.408 0-4.108-.777-5.666-2.301l-2.514 2.478zm17.389-5.985c0 3.895.568 5.383 1.949 6.906.992 1.098 2.656 2.301 5.453 2.301s4.463-1.203 5.455-2.301c1.381-1.523 1.947-3.012 1.947-6.906 0-3.861-.566-5.348-1.947-6.871-.992-1.098-2.656-2.303-5.455-2.303s-4.461 1.205-5.453 2.303c-1.381 1.524-1.949 3.01-1.949 6.871m11.191.035c0 2.586-.211 3.293-.885 4.25-.531.744-1.664 1.311-2.904 1.311s-2.373-.566-2.902-1.311c-.674-.957-.887-1.664-.887-4.285 0-2.586.213-3.295.887-4.25.529-.744 1.664-1.311 2.902-1.311s2.373.566 2.904 1.311c.674.955.885 1.664.885 4.285m6.697 2.94c0 4.072 3.188 6.232 6.021 6.232 1.875 0 3.506-.709 4.639-2.125h.07v1.914h3.611v-17.957h-3.611v10.695c0 2.443-1.523 3.861-3.543 3.861-2.053 0-3.576-1.418-3.576-3.861v-10.695h-3.611V146.4zm18.303 6.019h3.613v-10.801c0-2.621 1.734-3.754 3.506-3.754.922 0 1.523.248 2.373.885l2.621-3.117c-1.1-.85-2.301-1.381-3.754-1.381-1.912 0-3.543.709-4.676 2.125h-.07v-1.912h-3.613v17.955zm23.617-5.275c-.885 1.098-2.16 1.877-3.646 1.877-2.939 0-4.676-1.666-4.676-5.563 0-3.93 1.736-5.594 4.676-5.594 1.486 0 2.762.779 3.646 1.877l2.656-2.373c-1.557-1.807-3.719-3.117-6.445-3.117-4.143 0-8.145 2.621-8.145 9.207 0 6.555 4.002 9.174 8.145 9.174 2.727 0 4.889-1.311 6.445-3.115l-2.656-2.373zm18.379-2.338v-2.975c0-4.641-3.438-7.58-7.402-7.58-3.473 0-7.402 2.268-7.402 9.244 0 7.365 4.285 9.137 7.969 9.137 2.408 0 4.711-.85 6.48-2.904l-2.621-2.23c-1.063 1.098-2.549 1.736-3.93 1.736-2.48 0-4.285-1.488-4.285-4.428h11.191zm-11.191-2.974c.07-2.729 1.664-4.18 3.789-4.18s3.682 1.451 3.789 4.18h-7.578z" fill-rule="evenodd"/><path d="M25.041 149.021c3.4 0 3.577-2.799 3.577-5.561 0-2.799-.177-5.596-3.577-5.596-3.364 0-3.542 2.975-3.542 5.596 0 2.586.177 5.561 3.542 5.561m-7.168 31.76v-46.316h3.626v1.877c1.134-1.24 2.798-2.09 4.64-2.09 2.195 0 3.79.992 4.817 2.338.991 1.275 1.274 2.443 1.274 6.871 0 4.391-.283 5.561-1.274 6.834-1.027 1.346-2.622 2.338-4.817 2.338-1.842 0-3.294-.85-4.64-2.125l-.013 14.23c1.204-1.416 2.833-2.125 4.745-2.125 2.798 0 5.985 2.16 5.985 6.232v11.936h-3.612v-10.695c0-2.445-1.523-3.861-3.542-3.861-2.054 0-3.576 1.416-3.576 3.861v10.695h-3.613z"/></svg>