<svg xmlns="http://www.w3.org/2000/svg" width="110.421" height="109.846"  xmlns:v="https://vecta.io/nano"><defs><linearGradient y2="168.101" x2="147.777" y1="111.921" x1="89.137" id="A" gradientUnits="userSpaceOnUse"><stop offset="0" stop-color="#ffe052"/><stop offset="1" stop-color="#ffc331"/></linearGradient><linearGradient y2="131.853" x2="110.149" y1="77.07" x1="55.549" id="B" gradientUnits="userSpaceOnUse"><stop offset="0" stop-color="#387eb8"/><stop offset="1" stop-color="#366994"/></linearGradient></defs><g transform="translate(-44.937 -67.469)"><path d="M99.75 67.469c-28.032 0-26.281 12.156-26.281 12.156l.031 12.594h26.75V96H62.875s-17.937-2.034-17.937 26.25 15.656 27.281 15.656 27.281h9.344v-13.125s-.504-15.656 15.406-15.656h26.531s14.906.241 14.906-14.406V82.125c0 0 2.263-14.656-27.031-14.656zM85 75.938a4.81 4.81 0 1 1 0 9.625 4.81 4.81 0 1 1 0-9.625z" fill="url(#B)"/><path d="M100.546 177.315c28.032 0 26.281-12.156 26.281-12.156l-.031-12.594h-26.75v-3.781h37.375s17.938 2.034 17.938-26.25-15.656-27.281-15.656-27.281h-9.344v13.125s.504 15.656-15.406 15.656H88.421s-14.906-.241-14.906 14.406v24.219s-2.263 14.656 27.031 14.656zm14.75-8.469a4.81 4.81 0 1 1 0-9.625 4.81 4.81 0 1 1 0 9.625z" fill="url(#A)"/></g></svg>